<?xml version="1.0" encoding="UTF-8" standalone="no"?>
<!-- Created with Inkscape (http://www.inkscape.org/) -->

<svg
   xmlns:dc="http://purl.org/dc/elements/1.1/"
   xmlns:cc="http://creativecommons.org/ns#"
   xmlns:rdf="http://www.w3.org/1999/02/22-rdf-syntax-ns#"
   xmlns:svg="http://www.w3.org/2000/svg"
   xmlns="http://www.w3.org/2000/svg"
   xmlns:sodipodi="http://sodipodi.sourceforge.net/DTD/sodipodi-0.dtd"
   xmlns:inkscape="http://www.inkscape.org/namespaces/inkscape"
   version="1.1"
   width="190.10458"
   height="55.612942"
   id="svg2"
   xml:space="preserve"
   inkscape:version="0.48.5 r10040"
   sodipodi:docname="gitsocial_banner.svg"><sodipodi:namedview
     pagecolor="#ffffff"
     bordercolor="#666666"
     borderopacity="1"
     objecttolerance="10"
     gridtolerance="10"
     guidetolerance="10"
     inkscape:pageopacity="0"
     inkscape:pageshadow="2"
     inkscape:window-width="1301"
     inkscape:window-height="744"
     id="namedview3350"
     showgrid="false"
     showguides="true"
     inkscape:guide-bbox="true"
     inkscape:zoom="3.9462616"
     inkscape:cx="70.667495"
     inkscape:cy="48.440049"
     inkscape:window-x="65"
     inkscape:window-y="24"
     inkscape:window-maximized="1"
     inkscape:current-layer="g3382"
     fit-margin-top="0"
     fit-margin-left="0"
     fit-margin-right="0"
     fit-margin-bottom="0" /><metadata
     id="metadata8"><rdf:RDF><cc:Work
         rdf:about=""><dc:format>image/svg+xml</dc:format><dc:type
           rdf:resource="http://purl.org/dc/dcmitype/StillImage" /><dc:title></dc:title></cc:Work></rdf:RDF></metadata><defs
     id="defs6"><clipPath
       id="clipPath18"><path
         d="m 0.06,91.886 91.828,0 0,-91.886 -91.828,0 0,91.886 z"
         id="path20"
         inkscape:connector-curvature="0" /></clipPath><clipPath
       id="clipPath24"><path
         d="M 0,0 92,0 92,92 0,92 0,0 z"
         id="path26"
         inkscape:connector-curvature="0" /></clipPath></defs><g
     style="fill:#000000"
     id="g12"
     transform="matrix(1.25,0,0,-1.25,-17.707369,78.802662)" /><g
     id="g3382"
     transform="scale(1.9994605,1.9994605)"><path
       inkscape:connector-curvature="0"
       id="path3045"
       d="M 85.695774,4.2489835e-5 C 84.631191,-0.00132751 84.32945,0.02952149 83.495624,0.22562039 l -0.39947,0.094173 0.925959,0.92640071 0.925975,0.9268389 0.190092,-0.05168 c 0.264771,-0.07167 0.821663,-0.04073 1.10905,0.06133 0.603054,0.214139 1.095216,0.749968 1.252293,1.363102 0.04589,0.1790165 0.05604,0.3316715 0.04123,0.6232955 -0.01084,0.212455 -0.03001,0.419056 -0.04245,0.459477 -0.01848,0.05988 0.238453,0.334698 1.388947,1.483992 l 1.412157,1.410408 0.247039,-0.04643 c 0.831101,-0.156816 1.62049,0.181363 2.078823,0.890485 0.205759,0.318358 0.291403,0.622567 0.290838,1.033276 -7.64e-4,0.5998065 -0.161682,0.9989665 -0.566355,1.4055885 -0.433897,0.435991 -0.926097,0.626705 -1.527799,0.591757 C 90.430358,11.374884 90.104131,11.2588 89.778172,11.026197 89.102606,10.544122 88.798216,9.6471275 89.039678,8.8488275 l 0.05429,-0.178271 -1.303968,-1.304408 -1.303976,-1.30397 7.64e-4,3.472142 0.0015,3.4721415 0.222946,0.147173 c 0.535109,0.352454 0.84676,0.95254 0.844493,1.62591 -0.0023,0.577289 -0.152444,0.953354 -0.552334,1.37887 -0.184511,0.196328 -0.301069,0.282177 -0.533071,0.3929 -0.470134,0.224374 -0.873231,0.275412 -1.32543,0.168197 -0.620424,-0.147101 -1.096192,-0.532562 -1.361788,-1.103797 -0.266268,-0.572675 -0.256961,-1.156877 0.02802,-1.737603 0.150504,-0.306677 0.518327,-0.686822 0.809891,-0.836609 L 84.832134,12.933314 84.83137,9.4239415 84.830607,5.9150065 84.60327,5.7862295 C 83.872007,5.3722725 83.462137,4.4910795 83.629126,3.6916445 83.660806,3.540071 83.696696,3.391258 83.708846,3.360943 83.724036,3.322933 83.37122,2.946735 82.572195,2.148518 L 81.413666,0.99083939 81.131586,1.1380122 c -0.670763,0.3491793 -1.378686,0.8784982 -2.062611,1.5422492 -1.459488,1.4164461 -2.425326,3.3112631 -2.72357,5.3433401 -0.336067,2.2897395 0.183381,4.4955735 1.307472,6.3113515 0.132096,0.262722 0.248188,0.532794 0.260618,0.830476 -0.0023,0.287861 -0.09397,0.568182 -0.20017,0.833104 -0.227947,0.584225 -0.659432,1.05096 -1.054306,1.526043 -0.134776,0.169191 -0.321539,0.344638 -0.303543,0.57993 0.02497,0.180037 0.222557,0.26392 0.384574,0.269818 0.532078,-0.04063 1.041487,-0.214121 1.545315,-0.379321 0.616477,-0.196288 1.227235,-0.453032 1.879963,-0.493642 0.350155,-0.03849 0.697997,0.0539 1.021009,0.182215 0.01848,0.0078 0.03718,0.01536 0.05566,0.02321 1.108371,0.592235 2.354747,0.97469 3.693783,1.085399 1.165978,0.0964 2.614677,-0.09056 3.773494,-0.487072 1.937634,-0.663007 3.583816,-1.924387 4.755516,-3.64472 1.02262,-1.501458 1.558943,-3.173482 1.608824,-5.0157045 0.03436,-1.268872 -0.134913,-2.343642 -0.546203,-3.468638 C 93.683964,3.8686805 91.98964,1.9940554 89.775071,0.91812359 88.919553,0.50247989 88.12927,0.24967269 87.166249,0.08370679 86.753532,0.01257779 86.553468,0.00111059 85.696271,4.5489835e-5 z"
       style="fill:#f34f2f;fill-opacity:1;stroke:none" /><text
       sodipodi:linespacing="125%"
       id="text3359"
       y="27.664801"
       x="-0.53142911"
       style="font-size:18.64663506px;font-style:normal;font-weight:normal;line-height:125%;letter-spacing:0px;word-spacing:0px;fill:#000000;fill-opacity:1;stroke:none;font-family:Sans"
       xml:space="preserve"><tspan
         style="font-style:normal;font-variant:normal;font-weight:900;font-stretch:normal;line-height:125%;font-family:Lato;-inkscape-font-specification:Lato Heavy"
         y="27.664801"
         x="-0.53142911"
         id="tspan3361"
         sodipodi:role="line">GitSocial</tspan></text>
</g></svg>