<?xml version="1.0" encoding="UTF-8" standalone="no"?>
<!-- Created with Inkscape (http://www.inkscape.org/) -->

<svg
   xmlns:dc="http://purl.org/dc/elements/1.1/"
   xmlns:cc="http://creativecommons.org/ns#"
   xmlns:rdf="http://www.w3.org/1999/02/22-rdf-syntax-ns#"
   xmlns:svg="http://www.w3.org/2000/svg"
   xmlns="http://www.w3.org/2000/svg"
   xmlns:sodipodi="http://sodipodi.sourceforge.net/DTD/sodipodi-0.dtd"
   xmlns:inkscape="http://www.inkscape.org/namespaces/inkscape"
   version="1.1"
   width="83.979401"
   height="83.906464"
   id="svg2"
   xml:space="preserve"
   inkscape:version="0.91pre2 r13516"
   sodipodi:docname="gitsocial.svg"><sodipodi:namedview
     pagecolor="#ffffff"
     bordercolor="#666666"
     borderopacity="1"
     objecttolerance="10"
     gridtolerance="10"
     guidetolerance="10"
     inkscape:pageopacity="0"
     inkscape:pageshadow="2"
     inkscape:window-width="1440"
     inkscape:window-height="900"
     id="namedview3350"
     showgrid="false"
     showguides="true"
     inkscape:guide-bbox="true"
     inkscape:zoom="6.103215"
     inkscape:cx="41.77032"
     inkscape:cy="32.577902"
     inkscape:window-x="-8"
     inkscape:window-y="-8"
     inkscape:window-maximized="1"
     inkscape:current-layer="g10"
     fit-margin-top="0"
     fit-margin-left="0"
     fit-margin-right="0"
     fit-margin-bottom="0" /><metadata
     id="metadata8"><rdf:RDF><cc:Work
         rdf:about=""><dc:format>image/svg+xml</dc:format><dc:type
           rdf:resource="http://purl.org/dc/dcmitype/StillImage" /><dc:title></dc:title></cc:Work></rdf:RDF></metadata><defs
     id="defs6"><clipPath
       id="clipPath18"><path
         d="m 0.06,91.886 91.828,0 0,-91.886 -91.828,0 0,91.886 z"
         id="path20"
         inkscape:connector-curvature="0" /></clipPath><clipPath
       id="clipPath24"><path
         d="M 0,0 92,0 92,92 0,92 0,0 Z"
         id="path26"
         inkscape:connector-curvature="0" /></clipPath></defs><g
     transform="matrix(1.25,0,0,-1.25,-16.386367,105.38893)"
     id="g10"
     style="fill:#000000"><g
       id="g12"
       style="fill:#000000" /><path
       style="opacity:1;fill:#f34f2f;fill-opacity:1;stroke:none;stroke-width:3;stroke-linecap:butt;stroke-linejoin:miter;stroke-miterlimit:4;stroke-dasharray:none;stroke-dashoffset:0;stroke-opacity:1"
       d="m 58.457031,9.46875 c -4.747036,-0.00597 -6.092489,0.1314331 -9.810547,1.005859 l -1.78125,0.419922 4.128907,4.13086 4.128906,4.132812 0.847656,-0.230469 c 1.18063,-0.319588 3.663823,-0.18161 4.945313,0.273438 2.689032,0.954856 4.883569,3.344139 5.583984,6.078125 0.204499,0.798242 0.249969,1.478936 0.183594,2.779297 -0.04835,0.94735 -0.133828,1.868595 -0.189453,2.048828 -0.0824,0.267025 1.063274,1.492437 6.193359,6.617187 l 6.296875,6.289063 1.101563,-0.207031 c 3.705915,-0.699257 7.225825,0.808699 9.269531,3.970703 0.917512,1.419571 1.299375,2.776055 1.296875,4.607422 -0.0035,2.674563 -0.720953,4.454436 -2.525391,6.267578 -1.934772,1.944105 -4.129505,2.794503 -6.8125,2.638672 -1.746155,-0.10142 -3.20082,-0.61907 -4.654297,-1.65625 -3.012386,-2.149595 -4.369672,-6.149335 -3.292968,-9.708985 L 73.609375,48.130859 67.794922,42.314453 61.980469,36.5 l 0.0039,15.482422 0.0059,15.482422 0.994141,0.65625 c 2.386062,1.571606 3.77575,4.247417 3.765625,7.25 -0.0087,2.574155 -0.679741,4.251046 -2.462891,6.148437 -0.82272,0.875432 -1.342455,1.25824 -2.376953,1.751953 -2.096372,1.000494 -3.893796,1.228074 -5.910156,0.75 -2.76651,-0.655933 -4.887946,-2.374713 -6.072266,-4.921875 -1.187305,-2.553581 -1.145805,-5.158562 0.125,-7.748047 0.671102,-1.367482 2.311266,-3.062563 3.611328,-3.730468 l 0.941407,-0.482422 -0.0039,-15.648438 -0.0039,-15.646484 -1.013672,-0.574219 c -3.260715,-1.845852 -5.088371,-5.775129 -4.34375,-9.339843 0.141182,-0.675873 0.301357,-1.339435 0.355469,-1.47461 0.06784,-0.169489 -1.505507,-1.846971 -5.068359,-5.40625 l -5.166016,-5.162109 -1.257812,0.65625 c -2.99097,1.557007 -6.147625,3.91726 -9.197266,6.876953 -6.507939,6.315987 -10.814642,14.765059 -12.144531,23.826172 -1.498516,10.210042 0.81771,20.045952 5.830078,28.142578 0.589018,1.171488 1.106691,2.37575 1.162109,3.703125 -0.0092,1.283584 -0.419024,2.533547 -0.892578,3.714844 -1.016427,2.605083 -2.940414,4.686271 -4.701172,6.804687 -0.600971,0.754426 -1.433753,1.536756 -1.353515,2.585938 0.111417,0.802787 0.992375,1.176825 1.714843,1.203125 2.372553,-0.181173 4.644008,-0.954773 6.890625,-1.691407 2.748864,-0.875258 5.472262,-2.02009 8.382813,-2.201172 1.561356,-0.171626 3.112375,0.240336 4.552734,0.8125 0.08247,0.03495 0.165594,0.06852 0.248047,0.103516 4.942275,2.640809 10.499911,4.346185 16.470703,4.839844 5.199156,0.42986 11.658965,-0.403803 16.826172,-2.171875 8.639987,-2.956376 15.980393,-8.580919 21.20503,-16.251953 C 97.657569,68.14478 100.04906,60.689158 100.27148,52.474609 100.42468,46.816656 99.6699,42.024215 97.835938,37.007812 94.074487,26.719151 86.519429,18.360123 76.644531,13.5625 72.829744,11.709123 69.305864,10.581844 65.011719,9.8417969 63.171371,9.5246331 62.279294,9.4735 58.457031,9.46875 Z"
       transform="matrix(0.8,0,0,-0.8,0.06,91.886)"
       id="path4166"
       inkscape:connector-curvature="0" /></g></svg>