<?xml version="1.0" encoding="UTF-8" standalone="no"?>
<!-- Created with Inkscape (http://www.inkscape.org/) -->

<svg
   xmlns:dc="http://purl.org/dc/elements/1.1/"
   xmlns:cc="http://creativecommons.org/ns#"
   xmlns:rdf="http://www.w3.org/1999/02/22-rdf-syntax-ns#"
   xmlns:svg="http://www.w3.org/2000/svg"
   xmlns="http://www.w3.org/2000/svg"
   xmlns:sodipodi="http://sodipodi.sourceforge.net/DTD/sodipodi-0.dtd"
   xmlns:inkscape="http://www.inkscape.org/namespaces/inkscape"
   width="513.48981"
   height="521.33997"
   id="svg2"
   version="1.1"
   inkscape:version="0.48.5 r10040"
   sodipodi:docname="gitsocial.svg">
  <defs
     id="defs4" />
  <sodipodi:namedview
     id="base"
     pagecolor="#ffffff"
     bordercolor="#666666"
     borderopacity="1.0"
     inkscape:pageopacity="0.0"
     inkscape:pageshadow="2"
     inkscape:zoom="0.74377493"
     inkscape:cx="94.497865"
     inkscape:cy="200.07896"
     inkscape:document-units="px"
     inkscape:current-layer="layer1"
     showgrid="false"
     inkscape:window-width="1301"
     inkscape:window-height="744"
     inkscape:window-x="65"
     inkscape:window-y="792"
     inkscape:window-maximized="1"
     fit-margin-top="0"
     fit-margin-left="0"
     fit-margin-right="0"
     fit-margin-bottom="0" />
  <metadata
     id="metadata7">
    <rdf:RDF>
      <cc:Work
         rdf:about="">
        <dc:format>image/svg+xml</dc:format>
        <dc:type
           rdf:resource="http://purl.org/dc/dcmitype/StillImage" />
        <dc:title />
      </cc:Work>
    </rdf:RDF>
  </metadata>
  <g
     inkscape:label="Layer 1"
     inkscape:groupmode="layer"
     id="layer1"
     transform="translate(-113.09496,-266.02442)">
    <g
       transform="matrix(7.7176107,0,0,-7.7176107,45.430722,829.78743)"
       inkscape:label="ink_ext_XXXXXX"
       id="g3047">
      <g
         transform="scale(0.1,0.1)"
         id="g3049">
        <path
           style="fill:#f03c2e;fill-opacity:1;fill-rule:nonzero;stroke:none"
           d="m 115.85984,55 c -9.58955,1.839716 -13.95256,15.290104 -7.45225,22.516673 22.189,32.226497 35.99538,70.852767 35.98577,110.193347 -0.66348,16.36724 -8.81611,31.00565 -15.51629,45.54344 -11.80543,24.50081 -22.44598,49.68516 -29.453331,76.01637 -11.919528,43.97653 -14.78373,90.38709 -8.52701,135.51148 6.77895,48.75927 24.497121,96.05831 52.132851,136.8483 30.67142,45.97244 72.70049,84.49961 121.73651,110.12039 7.41828,2.52886 15.33316,-1.86961 19.84375,-7.6875 23.46082,-23.14139 46.27491,-46.9255 69.51048,-70.29013 1.34204,-1.20656 2.46586,-2.61627 2.2628,-4.52846 1.30457,-13.93447 -2.19706,-28.45183 2.88928,-41.90807 5.43689,-18.60568 17.38874,-34.55986 31.11869,-47.92959 6.76675,-11.51003 6.59294,-25.32812 6.65818,-38.25499 0.32381,-71.43537 0.48908,-142.87141 0.49807,-214.30751 -14.23291,-11.10568 -28.51749,-23.47712 -36.125,-40.25 -13.07639,-29.97501 -0.56832,-68.67428 27.86481,-84.9873 26.39016,-14.45144 62.25382,-9.26668 82.91644,12.7998 22.6459,24.60929 24.19088,65.32861 4.1452,91.9439 -7.28688,10.39021 -15.31383,21.33872 -16.37087,34.41956 -2.94919,28.2621 -2.09832,56.71834 -2.63745,85.08266 -0.26566,47.65285 -0.40844,95.30654 -0.32438,142.96013 2.11474,-0.71309 3.30696,-2.89779 5.13834,-4.1096 28.16963,-25.15588 54.21052,-52.54414 80.67416,-79.4529 5.91783,-13.00935 3.3478,-27.63879 5.30432,-41.38844 5.05176,-31.56892 34.39177,-57.5487 66.48598,-57.99738 29.94129,-0.77199 58.89911,21.45635 65.41885,50.77702 5.36482,22.75092 -2.66189,48.14302 -20.34853,63.48757 -13.47301,12.48118 -31.46365,19.26334 -49.57177,21.07349 -17.11142,3.85803 -31.44912,14.91761 -43.68044,27.0222 -23.87881,22.08806 -46.41163,45.56631 -68.79591,69.15054 -6.00567,11.00453 -3.63228,23.97598 -6.2081,35.81616 -4.33973,21.24174 -19.84317,39.07718 -38.8794,48.84031 -13.92025,7.58565 -29.64356,10.74138 -45.08269,13.54967 -14.70167,4.65177 -25.911,15.87624 -36.53753,26.51976 -12.72533,12.4424 -25.37356,24.96349 -38.13603,37.36785 13.27885,4.22706 27.13215,6.22452 40.8766,8.2753 68.96058,8.80586 140.64286,-3.66572 202.2011,-36.10562 C 621.44325,667.63266 661.42626,632.94017 691.0548,590.76408 736.63709,526.6799 759.33771,446.13073 751.49699,367.68656 743.94837,287.96776 707.52267,210.78496 648.79505,156.03868 593.1165,103.8163 519.09793,71.135337 442.77943,66.646337 c -34.22409,-1.59965 -68.8646,0.378703 -102.18771,8.718248 -27.59355,6.990661 -53.91827,18.544783 -81.96494,23.809417 -16.75351,2.976138 -34.4798,3.140788 -50.58994,-2.948336 -22.59481,-7.828283 -41.5793,-22.912001 -62.8645,-33.413166 -9.10225,-4.28359 -18.92751,-7.96194 -29.1102,-7.840404 L 115.85984,55 z"
           id="path3051"
           inkscape:connector-curvature="0" />
      </g>
    </g>
  </g>
</svg>
