<?xml version="1.0" encoding="UTF-8" standalone="no"?>
<!-- Created with Inkscape (http://www.inkscape.org/) -->

<svg
   xmlns:dc="http://purl.org/dc/elements/1.1/"
   xmlns:cc="http://creativecommons.org/ns#"
   xmlns:rdf="http://www.w3.org/1999/02/22-rdf-syntax-ns#"
   xmlns:svg="http://www.w3.org/2000/svg"
   xmlns="http://www.w3.org/2000/svg"
   xmlns:sodipodi="http://sodipodi.sourceforge.net/DTD/sodipodi-0.dtd"
   xmlns:inkscape="http://www.inkscape.org/namespaces/inkscape"
   version="1.1"
   width="83.979401"
   height="83.906464"
   id="svg2"
   xml:space="preserve"
   inkscape:version="0.48.5 r10040"
   sodipodi:docname="gitsocial.svg"><sodipodi:namedview
     pagecolor="#ffffff"
     bordercolor="#666666"
     borderopacity="1"
     objecttolerance="10"
     gridtolerance="10"
     guidetolerance="10"
     inkscape:pageopacity="0"
     inkscape:pageshadow="2"
     inkscape:window-width="1301"
     inkscape:window-height="744"
     id="namedview3350"
     showgrid="false"
     showguides="true"
     inkscape:guide-bbox="true"
     inkscape:zoom="3.9462616"
     inkscape:cx="37.945736"
     inkscape:cy="40.011184"
     inkscape:window-x="65"
     inkscape:window-y="24"
     inkscape:window-maximized="1"
     inkscape:current-layer="svg2"
     fit-margin-top="0"
     fit-margin-left="0"
     fit-margin-right="0"
     fit-margin-bottom="0" /><metadata
     id="metadata8"><rdf:RDF><cc:Work
         rdf:about=""><dc:format>image/svg+xml</dc:format><dc:type
           rdf:resource="http://purl.org/dc/dcmitype/StillImage" /><dc:title></dc:title></cc:Work></rdf:RDF></metadata><defs
     id="defs6"><clipPath
       id="clipPath18"><path
         d="m 0.06,91.886 91.828,0 0,-91.886 -91.828,0 0,91.886 z"
         id="path20"
         inkscape:connector-curvature="0" /></clipPath><clipPath
       id="clipPath24"><path
         d="M 0,0 92,0 92,92 0,92 0,0 Z"
         id="path26"
         inkscape:connector-curvature="0" /></clipPath></defs><g
     style="fill:#000000"
     id="g12"
     transform="matrix(1.25,0,0,-1.25,-16.386367,105.38893)" /><path
     style="fill:#f34f2f;fill-opacity:1;stroke:none"
     d="m 42.152933,-0.06087889 c -4.74703,-0.006 -6.0925,0.1314338 -9.81055,1.00586 l -1.78125,0.41992129 4.1289,4.13086 4.12892,4.1328125 0.84765,-0.230469 c 1.18063,-0.319589 3.66382,-0.18161 4.94531,0.273438 2.68904,0.9548561 4.88357,3.3441381 5.58399,6.0781251 0.2045,0.798242 0.24997,1.478936 0.1836,2.779297 -0.0484,0.94735 -0.13384,1.868595 -0.18947,2.048828 -0.0824,0.267025 1.06328,1.492437 6.19337,6.617187 l 6.29687,6.289063 1.10156,-0.207032 c 3.70592,-0.699256 7.22583,0.808699 9.26954,3.970704 0.91751,1.41957 1.29938,2.776055 1.29688,4.607422 -0.004,2.674563 -0.72097,4.454436 -2.5254,6.267578 -1.93477,1.944105 -4.1295,2.794503 -6.8125,2.638672 -1.74615,-0.101425 -3.20082,-0.61907 -4.65429,-1.656251 -3.01239,-2.149595 -4.36968,-6.149335 -3.29298,-9.708985 l 0.24219,-0.794921 -5.81445,-5.816406 -5.81445,-5.814454 0.004,15.482423 0.006,15.482422 0.99414,0.65625 c 2.38606,1.571605 3.77575,4.247416 3.76562,7.25 -0.009,2.574155 -0.67973,4.251045 -2.46288,6.148436 -0.82273,0.875433 -1.34247,1.25824 -2.37697,1.751954 -2.09636,1.000494 -3.89378,1.228074 -5.91015,0.75 -2.76651,-0.655934 -4.88795,-2.374714 -6.07226,-4.921875 -1.18731,-2.553581 -1.14581,-5.158562 0.125,-7.748047 0.6711,-1.367483 2.31126,-3.062563 3.61133,-3.730468 l 0.9414,-0.482422 -0.004,-15.648438 -0.004,-15.646485 -1.01367,-0.574219 c -3.26072,-1.845851 -5.08837,-5.775128 -4.34375,-9.339842 0.14118,-0.675874 0.30135,-1.339435 0.35547,-1.47461 0.0679,-0.169489 -1.5055,-1.846971 -5.06837,-5.4062501 l -5.16601,-5.1621088 -1.25781,0.65625 c -2.99096,1.5570063 -6.14762,3.9172598 -9.19727,6.8769529 C 6.0942583,18.206281 1.7875563,26.655352 0.45766627,35.716466 -1.0408487,45.926507 1.2753763,55.762417 6.2877453,63.859044 c 0.589017,1.171487 1.106691,2.37575 1.162108,3.703125 -0.0092,1.283583 -0.419023,2.533547 -0.892577,3.714843 -1.016428,2.605084 -2.940415,4.686272 -4.701173,6.804688 -0.600971,0.754426 -1.43375203,1.536756 -1.35351503,2.585937 0.111413,0.802788 0.99237503,1.176825 1.71484303,1.203125 2.372554,-0.181172 4.644009,-0.954772 6.890622,-1.691406 2.7488697,-0.875259 5.4722697,-2.02009 8.3828197,-2.201172 1.56135,-0.171627 3.11238,0.240336 4.55273,0.8125 0.0825,0.03495 0.1656,0.06852 0.24805,0.103512 4.94227,2.640809 10.49991,4.346185 16.4707,4.839844 5.19916,0.42986 11.65897,-0.403803 16.82617,-2.171875 8.63999,-2.956376 15.9804,-8.580919 21.20504,-16.251953 4.55991,-6.695065 6.9514,-14.150686 7.17381,-22.365235 0.1532,-5.657953 -0.60157,-10.450395 -2.43554,-15.466797 -3.76095,-10.288661 -11.31601,-18.6476891 -21.1909,-23.4453126 -3.81478,-1.8533763 -7.33867,-2.980655 -11.63281,-3.72070249 -1.84035,-0.3171638 -2.73242,-0.3682975 -6.55469,-0.3730475 z"
     id="path3045"
     inkscape:connector-curvature="0" /></svg>